<?xml version="1.0" standalone="no"?>
<!DOCTYPE svg PUBLIC "-//W3C//DTD SVG 20010904//EN"
 "http://www.w3.org/TR/2001/REC-SVG-20010904/DTD/svg10.dtd">
<svg version="1.0" xmlns="http://www.w3.org/2000/svg"
 width="474.000000pt" height="660.000000pt" viewBox="0 0 474.000000 660.000000"
 preserveAspectRatio="xMidYMid meet">
<metadata>
Created by potrace 1.16, written by Peter Selinger 2001-2019
</metadata>
<g transform="translate(0.000000,660.000000) scale(0.100000,-0.100000)"
fill="#000000" stroke="none">
<path d="M0 6145 c1 -289 5 -457 11 -461 7 -4 6 -10 -1 -19 -7 -9 -7 -21 0
-41 8 -20 8 -30 1 -32 -6 -2 -11 -14 -11 -27 0 -19 6 -23 40 -27 22 -2 40 -1
40 3 0 4 11 10 25 13 14 4 25 12 25 19 1 16 35 57 49 57 6 0 10 10 8 21 -2 18
7 24 48 36 28 7 73 16 100 20 28 3 55 9 60 13 6 5 31 11 57 15 43 6 157 55
129 55 -9 0 -9 5 -1 20 10 18 7 24 -12 21 -5 0 -8 6 -8 14 0 8 -6 15 -12 16
-34 2 169 58 247 68 49 7 105 19 124 28 35 15 35 16 12 22 -36 10 -37 28 -2
36 17 4 31 11 31 17 0 6 6 8 14 5 8 -3 25 7 40 23 14 16 44 34 68 40 24 7 54
17 68 23 14 6 52 14 85 18 33 4 106 24 161 43 l102 36 97 -10 c53 -5 105 -15
116 -21 11 -5 37 -11 58 -11 44 0 151 21 168 35 7 5 17 6 23 2 14 -9 120 5
120 16 0 5 -10 9 -22 9 -19 0 -20 2 -8 10 8 5 25 10 38 10 12 0 22 4 22 8 0 4
21 13 48 20 26 7 61 17 77 22 17 5 66 12 111 16 81 6 81 6 112 -25 38 -36 39
-41 10 -42 -17 0 -12 -4 17 -15 22 -8 51 -12 65 -9 21 4 29 -2 52 -40 25 -42
23 -65 -4 -49 -7 4 -3 -4 10 -18 12 -13 22 -30 22 -36 0 -7 5 -12 10 -12 19 0
10 -21 -12 -30 -22 -9 -22 -10 -2 -7 11 1 21 -2 22 -8 0 -5 -6 -9 -14 -7 -22
4 -17 -19 6 -25 21 -6 28 -23 9 -23 -11 0 -92 60 -97 73 -2 4 -20 7 -39 7 -20
0 -34 -3 -30 -6 5 -6 -16 -18 -125 -76 -21 -11 -38 -22 -38 -25 0 -2 5 -1 11
3 6 3 21 2 32 -3 75 -34 129 -35 209 -4 22 8 26 8 21 -4 -4 -12 9 -15 73 -15
111 0 82 -19 -42 -27 -55 -3 -108 -12 -120 -20 -11 -7 -24 -10 -27 -6 -4 3 -7
1 -7 -5 0 -7 -7 -12 -15 -12 -13 0 -14 4 -5 20 18 33 -17 25 -38 -8 -28 -46
-176 -162 -206 -162 -8 0 -17 -6 -19 -12 -4 -9 -13 -5 -29 12 -13 14 -32 26
-42 27 -15 1 -17 -6 -15 -40 4 -78 0 -113 -11 -97 -5 8 -10 11 -10 6 0 -5 -6
-3 -14 3 -10 9 -16 9 -21 1 -4 -7 2 -14 13 -17 11 -3 23 -11 26 -19 7 -18 -56
-19 -84 -2 -10 7 -23 8 -27 4 -4 -5 -2 -11 5 -13 10 -4 6 -14 -14 -34 -31 -33
-27 -36 16 -14 44 23 36 0 -10 -31 -22 -15 -40 -31 -40 -36 0 -5 -3 -7 -7 -5
-19 11 -50 -14 -61 -49 -9 -31 -16 -39 -36 -40 -30 -2 -47 32 -25 48 11 8 10
9 -3 4 -13 -4 -18 0 -19 14 -2 21 -5 36 -9 45 -1 3 -3 9 -4 14 0 5 -4 12 -8
16 -4 4 -4 13 -1 21 3 8 0 14 -6 14 -6 0 -11 8 -11 18 -1 23 -59 131 -61 112
-1 -8 0 -19 1 -25 1 -5 -2 -7 -6 -3 -4 5 -9 20 -10 35 -2 14 -9 32 -16 40 -12
11 -13 8 -11 -19 3 -47 22 -116 45 -163 11 -22 15 -41 10 -43 -12 -4 -3 -52
10 -52 6 0 8 -6 5 -13 -3 -7 8 -22 24 -33 16 -10 29 -25 29 -31 0 -18 -7 -16
-42 8 l-30 22 7 -23 c5 -17 4 -21 -6 -15 -9 6 -11 4 -6 -8 4 -12 2 -14 -11
-10 -9 3 -14 3 -10 -1 3 -4 -3 -17 -14 -28 l-20 -20 31 -20 c17 -11 31 -21 31
-22 0 -1 -22 -1 -50 0 -52 1 -58 -3 -37 -25 10 -11 9 -12 -2 -6 -11 6 -13 4
-7 -10 4 -10 2 -21 -4 -25 -5 -3 -11 -18 -12 -33 -3 -30 -18 -40 -39 -26 -11
7 -10 9 5 9 12 0 16 5 12 16 -3 9 -6 18 -6 20 0 13 -20 1 -25 -16 -3 -11 -13
-20 -22 -20 -11 0 -13 5 -8 18 14 32 17 62 7 62 -5 0 -15 -13 -22 -30 -19 -45
-53 -81 -68 -71 -7 4 -12 12 -11 17 10 39 -139 373 -170 382 -9 3 -11 0 -6 -8
6 -10 4 -12 -8 -7 -22 8 -21 0 7 -65 63 -141 70 -292 17 -349 -12 -13 -17 -25
-12 -27 6 -2 -1 -14 -14 -26 -14 -13 -25 -28 -25 -34 0 -6 -12 -24 -27 -40
-44 -47 -61 -68 -68 -91 -3 -12 -10 -21 -15 -21 -17 0 -40 12 -40 22 0 5 4 7
9 4 12 -8 51 28 51 48 0 9 9 24 20 33 11 10 20 21 20 25 0 13 -83 3 -88 -11
-3 -10 2 -11 18 -6 16 5 21 4 18 -6 -3 -8 -16 -14 -30 -14 -19 1 -24 -3 -21
-16 3 -10 -8 -34 -23 -53 l-29 -36 -22 47 c-13 26 -23 54 -23 62 0 9 -7 25
-15 35 -8 11 -15 40 -15 64 0 51 -15 83 -35 76 -11 -5 -13 2 -8 32 6 35 5 37
-17 31 -13 -3 -30 -1 -37 5 -19 15 -17 -21 2 -46 8 -11 15 -34 15 -50 0 -17 7
-63 15 -101 22 -103 18 -234 -6 -219 -5 3 -9 15 -9 27 -1 20 -2 20 -11 5 -5
-10 -16 -18 -24 -18 -8 0 -17 -5 -21 -11 -4 -7 1 -10 12 -7 16 3 54 -23 54
-37 0 -3 -13 -5 -30 -5 -23 0 -28 3 -23 16 4 12 2 15 -8 10 -8 -3 -22 -9 -31
-12 -10 -4 -18 -12 -18 -20 0 -7 -14 -29 -30 -47 -38 -44 -39 -61 -1 -55 21 3
28 1 24 -9 -6 -16 -35 -17 -52 0 -10 9 -15 9 -18 0 -3 -8 -13 -9 -36 -2 -18 5
-32 9 -32 9 0 0 -1 -12 -1 -26 -2 -25 -34 -59 -45 -46 -3 4 -11 39 -18 77 -6
39 -19 95 -27 125 -41 142 -58 191 -66 196 -5 3 -20 -1 -33 -10 -23 -15 -23
-18 -11 -58 27 -89 36 -140 36 -213 0 -43 -4 -75 -10 -75 -5 0 -10 -5 -10 -11
0 -5 4 -7 10 -4 6 3 10 0 10 -8 0 -10 -7 -13 -19 -10 -13 3 -23 -2 -31 -16 -6
-12 -16 -19 -21 -15 -6 3 -19 -2 -30 -12 -15 -13 -17 -19 -7 -26 9 -5 10 -10
2 -15 -6 -5 -13 -16 -17 -25 -5 -13 -15 -16 -47 -12 -22 3 -48 0 -58 -5 -16
-10 -16 -10 1 -11 9 0 17 -2 17 -5 0 -11 -39 -43 -59 -50 -16 -5 -20 -12 -16
-26 5 -14 2 -19 -12 -19 -29 0 -43 20 -36 51 4 19 1 29 -6 29 -8 0 -10 8 -6
20 13 40 -7 41 -41 3 -34 -38 -34 -38 -34 -140 0 -71 4 -103 13 -107 10 -5 10
-7 0 -12 -10 -4 -13 -108 -13 -466 l0 -460 23 16 c30 21 206 138 237 158 72
44 254 134 367 182 242 102 484 173 753 221 154 28 140 19 136 78 -2 29 -8 65
-14 80 -7 16 -12 32 -12 36 0 5 -10 21 -22 37 -15 18 -23 44 -25 74 -1 25 -7
70 -13 100 -30 138 17 301 114 398 31 30 56 59 56 63 0 4 12 12 28 18 15 6 39
20 54 33 22 17 32 20 50 11 13 -6 35 -15 51 -22 15 -6 27 -15 27 -20 0 -5 18
-2 40 7 45 19 53 32 15 24 -25 -4 -25 -3 -14 24 17 40 32 54 81 79 24 12 48
31 54 43 8 16 13 19 22 10 8 -8 21 -4 49 18 36 28 43 29 153 31 216 5 270 9
282 21 19 19 49 14 55 -8 6 -24 34 -34 93 -35 40 0 46 -3 65 -35 12 -21 26
-34 35 -33 21 5 85 -45 101 -77 7 -14 35 -55 61 -92 42 -60 108 -183 108 -202
0 -4 16 -26 34 -48 39 -45 55 -96 36 -108 -7 -4 -9 -13 -5 -20 6 -9 4 -11 -5
-5 -8 5 -11 3 -8 -6 3 -8 12 -13 20 -11 27 4 52 -83 53 -185 0 -79 -3 -94 -21
-115 -29 -32 -61 -106 -63 -145 -1 -18 -5 -43 -10 -57 -12 -29 -6 -36 29 -36
15 0 30 -3 34 -7 14 -14 91 -33 94 -23 2 6 8 10 13 10 6 0 7 -5 4 -10 -8 -13
54 -40 74 -32 8 3 12 1 8 -5 -7 -11 131 -68 141 -58 4 3 0 11 -8 16 -13 9 -13
10 0 6 8 -2 15 -10 15 -18 0 -19 15 -29 43 -29 13 0 21 -4 18 -9 -8 -12 50
-35 65 -25 8 4 10 3 5 -4 -4 -7 4 -17 21 -24 38 -17 139 -74 186 -106 30 -20
40 -23 50 -13 9 10 8 11 -4 6 -25 -9 -31 9 -8 23 16 10 20 10 25 -2 3 -8 3
-20 -1 -26 -4 -6 1 -20 11 -31 19 -22 43 -27 25 -5 -9 11 -8 15 4 20 9 3 13 2
10 -4 -3 -6 0 -10 8 -10 8 0 17 9 20 20 3 11 1 18 -3 15 -5 -3 -12 0 -16 6 -5
9 3 10 28 5 24 -4 39 -2 47 7 12 15 50 15 165 2 51 -6 70 -4 76 5 4 7 15 10
24 7 14 -6 14 -9 -5 -28 -15 -15 -23 -18 -29 -9 -10 16 -55 8 -55 -10 0 -22
123 -27 131 -5 8 19 21 19 40 0 18 -17 34 -20 34 -5 0 6 -7 10 -17 10 -32 0
-1 14 34 16 20 0 41 8 47 17 13 16 106 35 106 21 0 -5 13 -9 29 -10 21 -1 28
3 24 12 -7 19 12 18 27 -1 7 -9 21 -13 31 -10 11 4 19 2 19 -4 0 -5 -9 -13
-20 -16 -11 -4 -18 -11 -15 -16 4 -5 2 -9 -3 -9 -5 0 -20 -16 -33 -35 -14 -20
-32 -35 -43 -35 -15 0 -17 -3 -9 -11 14 -14 58 -8 59 9 1 6 2 19 3 27 0 8 9
15 20 15 10 0 21 9 24 20 3 12 14 20 27 20 13 0 19 4 14 11 -4 7 -1 10 6 7 24
-8 23 -28 -1 -28 -12 0 -35 -14 -51 -32 -31 -35 -38 -64 -12 -54 9 3 33 9 54
12 31 5 37 10 33 25 -3 11 1 21 11 25 19 7 21 30 4 38 -10 5 -10 7 0 12 18 8
18 520 -1 527 -15 5 -14 87 1 96 6 3 3 13 -6 21 -14 13 -15 12 -9 -3 6 -15 -1
-17 -51 -17 -52 1 -55 2 -38 15 18 13 18 15 3 15 -10 0 -20 -7 -23 -15 -5 -11
-11 -12 -25 -4 -16 8 -19 6 -19 -13 -1 -21 -2 -22 -14 -5 -15 19 -41 23 -52 6
-4 -8 -9 -7 -15 2 -7 11 -9 10 -9 -4 0 -10 -5 -15 -10 -12 -6 3 -7 18 -3 33 6
24 5 26 -10 13 -10 -7 -17 -20 -17 -28 0 -12 -3 -13 -13 -4 -8 6 -12 23 -10
38 5 28 4 28 -41 25 -37 -3 -46 -8 -46 -23 0 -10 -5 -19 -11 -19 -6 0 -8 9 -4
20 5 14 2 20 -9 20 -9 0 -16 -4 -16 -10 0 -5 -7 -10 -15 -10 -8 0 -15 5 -15
10 0 6 5 10 10 10 6 0 10 5 10 10 0 6 -6 10 -12 10 -7 0 -25 7 -40 14 -16 9
-30 11 -33 5 -4 -5 -1 -9 5 -9 6 0 8 -5 4 -11 -3 -6 -20 -9 -38 -6 -21 3 -35
-1 -43 -12 -11 -14 -13 -14 -19 7 -3 12 -11 22 -16 22 -6 0 -7 11 -4 25 4 14
2 25 -4 25 -5 0 -10 7 -10 15 0 8 -5 15 -10 15 -6 0 -8 -10 -5 -23 4 -15 0
-29 -13 -40 -19 -17 -19 -17 -15 6 3 14 0 28 -6 31 -6 4 -11 2 -11 -3 0 -19
-17 -12 -23 8 -3 13 1 21 12 24 25 6 -36 29 -89 32 -53 4 -119 33 -100 45 22
14 -28 32 -91 33 -35 1 -58 6 -56 12 2 5 -3 15 -12 22 -14 11 -12 12 12 13 60
0 9 30 -60 34 -12 1 -33 12 -46 24 -13 12 -33 22 -44 22 -15 0 -27 13 -42 43
-12 23 -21 36 -21 30 0 -7 -4 -13 -10 -13 -5 0 -10 9 -10 19 0 28 -11 52 -21
46 -4 -3 -13 4 -19 15 -9 16 -8 20 5 20 9 0 13 5 9 11 -4 8 -9 8 -17 0 -18
-18 -35 -12 -35 12 -1 55 -18 97 -38 97 -12 0 -12 4 1 24 17 26 10 56 -18 73
-14 9 -53 93 -49 106 1 5 -7 21 -18 37 -11 15 -20 35 -20 44 0 9 -4 24 -9 34
-23 45 -30 75 -40 172 -6 58 -15 126 -20 152 -4 26 -7 77 -7 113 1 36 -2 65
-6 65 -5 0 -8 19 -8 43 0 23 -10 98 -21 167 -11 69 -22 154 -25 190 -2 36 -9
95 -14 132 -6 37 -9 84 -9 105 2 33 2 34 6 8 6 -42 33 -115 57 -151 12 -17 39
-57 60 -90 40 -61 188 -210 219 -220 9 -3 17 -8 17 -12 0 -4 12 -20 26 -37 14
-16 23 -23 19 -15 -5 12 -4 12 7 -1 7 -8 34 -28 61 -43 26 -15 47 -32 47 -38
0 -5 4 -6 10 -3 6 3 10 3 10 -2 0 -4 23 -21 50 -38 28 -16 50 -33 50 -38 0 -4
4 -6 9 -3 5 3 19 -2 32 -12 47 -34 209 -110 209 -98 0 2 -40 24 -89 49 -377
194 -631 453 -692 707 -12 53 -14 263 -2 283 3 5 6 28 7 51 1 28 10 53 29 77
15 20 24 39 20 42 -3 4 -726 7 -1605 7 l-1599 0 1 -455z"/>
<path d="M4042 6576 c-12 -12 -21 -29 -18 -37 2 -8 7 -29 10 -46 5 -27 2 -33
-13 -33 -14 0 -20 -10 -24 -42 -6 -48 -3 -56 15 -40 21 17 45 -8 53 -56 4 -23
11 -42 17 -42 6 0 7 7 2 18 -4 9 -8 36 -8 59 -1 22 -4 39 -8 36 -5 -2 -8 5 -8
16 0 10 5 21 11 23 9 3 9 10 -1 27 -10 19 -10 25 1 32 7 4 18 4 25 -1 18 -15
23 -1 12 32 -7 20 -7 33 0 40 16 16 3 38 -22 37 -11 0 -31 -10 -44 -23z"/>
<path d="M4356 6538 c-18 -27 -50 -44 -74 -39 -17 3 -43 -30 -37 -47 3 -7 -13
-42 -35 -78 -32 -53 -38 -69 -30 -85 6 -10 15 -19 20 -19 6 0 10 -9 10 -19 0
-14 -5 -18 -20 -14 -30 8 -25 -2 25 -53 32 -34 50 -45 65 -41 11 3 23 1 26 -4
10 -17 35 -9 44 14 7 17 9 18 9 4 1 -13 7 -16 26 -11 13 3 42 7 64 7 23 1 41
7 41 12 0 14 59 69 66 62 3 -3 -4 -16 -16 -29 -12 -13 -26 -42 -33 -65 -11
-44 -24 -52 -45 -31 -9 9 -12 9 -12 -3 0 -31 17 -42 51 -34 19 4 58 9 88 11
30 2 58 7 62 11 4 4 10 34 13 66 6 70 8 73 46 80 25 6 30 11 30 37 0 35 4 34
-78 14 -39 -10 -77 -13 -100 -9 -20 4 -59 8 -87 10 -27 1 -56 4 -64 6 -7 2
-15 -4 -16 -14 -5 -28 -12 -31 -30 -14 -23 24 -18 41 15 54 31 12 42 43 15 43
-8 0 -15 8 -15 17 0 9 -10 27 -22 40 -22 24 -11 31 22 13 14 -8 19 -5 23 12 9
32 1 37 -45 31 -37 -4 -40 -3 -29 11 8 9 23 16 35 16 35 0 50 15 37 36 -8 15
-11 15 -11 4 -1 -10 -4 -9 -9 5 -7 18 -9 18 -25 -7z"/>
<path d="M3711 6427 c-6 -16 -13 -52 -15 -80 -2 -29 -10 -70 -19 -92 -14 -37
-14 -40 4 -53 25 -18 48 4 56 53 5 33 32 51 34 23 0 -7 7 2 15 20 8 17 21 32
29 32 21 0 19 33 -3 60 -15 19 -22 21 -39 12 -23 -13 -37 -2 -45 33 -4 18 -6
17 -17 -8z"/>
<path d="M3990 6145 c0 -13 -11 -19 -32 -16 -7 1 -40 -38 -68 -78 -8 -11 -20
-21 -27 -21 -11 0 -10 -7 2 -30 14 -28 14 -32 0 -46 -20 -21 -19 -26 11 -48
22 -15 28 -16 36 -5 8 11 9 10 5 -3 -9 -26 15 -38 59 -31 33 5 37 4 28 -8 -11
-14 -2 -59 12 -59 3 0 4 7 1 15 -9 23 15 30 30 9 8 -10 19 -18 24 -16 6 1 8
-2 4 -8 -3 -5 -2 -10 2 -10 5 0 14 -13 20 -30 7 -19 18 -30 30 -30 11 0 23 -4
28 -9 6 -5 20 -12 33 -16 16 -5 22 -2 22 9 0 18 25 22 36 5 4 -7 22 -9 48 -5
65 10 90 13 99 15 4 0 7 14 7 31 0 19 7 33 21 40 12 7 18 18 15 26 -3 8 -1 23
6 33 12 20 5 51 -13 51 -6 0 -9 -6 -6 -14 3 -8 0 -17 -8 -20 -9 -3 -12 0 -9 8
3 7 -2 13 -11 14 -8 1 -22 3 -30 4 -8 1 -12 5 -9 10 3 4 -2 11 -10 14 -20 8
-46 -13 -46 -36 0 -16 -3 -17 -25 -7 -21 10 -25 18 -23 47 1 37 -21 110 -34
110 -4 0 -8 -12 -8 -26 0 -14 -6 -32 -14 -40 -8 -7 -16 -18 -18 -23 -5 -16
-118 -27 -118 -12 0 13 54 96 78 121 11 10 11 15 3 18 -7 2 -16 15 -22 28 -8
24 -10 24 -33 9 -23 -15 -25 -15 -35 2 -9 15 -12 15 -20 4 -7 -11 -10 -11 -17
0 -4 7 -3 14 4 17 16 5 5 22 -14 22 -8 0 -14 -7 -14 -15z"/>
<path d="M143 5277 c-29 -13 -29 -22 2 -55 20 -21 25 -23 25 -9 0 9 4 17 10
17 11 0 40 -52 40 -73 0 -8 12 -27 26 -43 14 -16 32 -42 41 -59 27 -51 57 -86
84 -101 30 -15 42 -9 29 15 -5 9 -21 43 -36 76 -14 33 -37 74 -50 92 -13 17
-24 35 -24 40 0 9 -4 13 -80 74 -38 30 -49 35 -67 26z"/>
<path d="M2067 4334 c4 -12 0 -14 -23 -9 -19 4 -24 3 -16 -2 7 -6 10 -17 6
-26 -8 -22 5 -22 22 1 12 15 15 15 24 2 5 -8 9 -19 9 -25 0 -5 -3 -4 -6 3 -2
6 -9 9 -15 6 -5 -3 0 -13 11 -21 12 -8 26 -11 31 -8 6 4 21 0 34 -8 12 -8 39
-20 60 -26 l39 -10 -23 24 c-13 14 -18 25 -12 25 6 0 14 -5 17 -10 4 -6 10 -8
14 -6 4 3 7 -8 6 -25 -1 -21 2 -28 12 -25 18 7 44 -4 37 -16 -4 -6 -10 -5 -15
3 -4 7 -11 10 -14 7 -8 -8 25 -55 44 -63 10 -4 12 2 9 25 -8 54 38 32 72 -35
15 -29 18 -33 14 -13 -5 22 -2 27 18 30 21 4 20 5 -12 20 -21 10 -28 17 -17
17 25 1 21 20 -8 31 -14 5 -28 16 -31 25 -5 11 -11 12 -25 4 -13 -6 -19 -6
-19 1 0 5 -9 10 -20 10 -15 0 -19 6 -17 23 1 17 -3 22 -21 22 -13 0 -26 5 -30
11 -7 11 -24 11 -68 0 -17 -5 -23 -1 -28 20 -5 17 -12 24 -21 20 -8 -3 -17 -1
-20 4 -10 16 -25 11 -18 -6z"/>
<path d="M2770 4187 c0 -27 -17 -47 -41 -47 -9 0 -19 -7 -23 -15 -3 -8 -2 -15
2 -15 4 0 8 -9 8 -21 0 -18 -2 -18 -12 -4 -10 14 -12 14 -18 0 -8 -23 4 -45
25 -45 10 0 19 -5 19 -10 0 -6 11 -3 25 6 24 15 25 15 36 -10 12 -25 29 -35
29 -17 0 5 12 12 26 15 20 5 24 11 19 29 -4 12 -15 29 -26 39 -10 9 -19 21
-19 27 0 6 -5 11 -11 11 -7 0 -9 11 -6 29 6 26 -7 51 -25 51 -4 0 -8 -10 -8
-23z"/>
<path d="M1833 3643 c17 -5 21 -17 17 -63 -1 -20 1 -23 11 -12 17 16 39 15 39
-2 0 -19 46 -98 75 -130 14 -15 25 -35 26 -44 1 -9 6 -2 11 16 12 36 41 43 57
13 11 -20 3 -32 -31 -44 -20 -7 -23 -22 -8 -32 12 -7 4 -25 -11 -25 -5 0 -9 9
-9 21 0 12 -4 17 -11 14 -6 -4 -8 -13 -5 -21 3 -8 0 -11 -10 -7 -8 3 -14 -1
-14 -11 0 -9 -6 -16 -13 -16 -7 0 -19 -9 -27 -19 -7 -11 -31 -23 -52 -26 -21
-4 -36 -10 -33 -15 3 -4 -5 -6 -17 -3 -19 4 -20 3 -8 -7 13 -10 13 -11 0 -7
-8 2 -14 12 -12 22 2 12 -1 16 -11 12 -10 -4 -17 2 -21 19 -4 13 -13 24 -20
24 -8 0 -30 21 -50 48 -20 26 -52 67 -71 92 -20 25 -40 54 -45 65 -7 17 -9 14
-9 -15 -3 -155 166 -328 386 -395 227 -70 550 -52 733 40 66 33 146 89 186
129 12 11 33 30 48 40 14 10 26 27 26 38 0 10 7 21 15 24 8 4 15 15 15 25 0
10 5 19 10 19 6 0 10 7 10 15 0 8 -4 15 -10 15 -5 0 -10 7 -10 15 0 8 5 15 10
15 6 0 10 7 10 15 0 8 -4 15 -9 15 -5 0 -7 9 -4 20 3 11 1 20 -5 20 -10 0 -47
-79 -53 -114 -2 -11 -8 -19 -14 -18 -18 2 -86 -72 -105 -115 -34 -78 -112
-137 -248 -187 -24 -9 -47 -14 -52 -11 -5 3 -11 1 -15 -5 -6 -10 -95 -14 -95
-4 0 3 14 19 30 36 30 29 30 29 30 6 1 -21 2 -21 11 -5 6 10 8 25 5 33 -3 8
-2 13 3 10 5 -3 14 1 21 9 7 8 16 12 22 9 5 -3 14 -1 21 4 7 5 25 12 41 16 15
4 26 9 24 11 -2 3 -34 -4 -71 -14 -37 -10 -67 -15 -67 -11 0 4 -7 11 -16 14
-12 4 -15 2 -10 -9 3 -9 0 -15 -8 -15 -8 0 -16 5 -18 10 -2 6 -16 12 -31 14
-41 4 -44 14 -11 44 16 15 42 44 58 65 27 37 27 39 10 52 -23 17 -34 19 -34 5
0 -5 6 -10 13 -10 7 0 4 -7 -7 -15 -11 -8 -16 -15 -12 -15 5 0 2 -7 -5 -16
-12 -15 -15 -14 -31 6 -25 31 -23 45 12 62 l30 15 -22 19 c-12 10 -18 13 -14
6 8 -14 -10 -42 -26 -42 -6 0 -7 8 -3 17 4 11 -5 7 -24 -11 -31 -30 -40 -56
-21 -56 6 0 13 -8 17 -17 3 -10 13 -26 20 -35 9 -10 12 -25 8 -37 -6 -20 -7
-20 -30 -3 -14 9 -25 22 -25 29 0 6 -8 9 -18 6 -16 -4 -18 0 -14 26 2 19 0 31
-7 31 -6 0 -11 -5 -11 -11 0 -18 -78 -89 -110 -101 -33 -11 -36 -9 -84 55 -16
21 -26 40 -23 44 8 7 37 -15 37 -28 0 -13 39 -49 44 -41 9 16 6 183 -4 177 -5
-3 -10 3 -10 14 0 11 5 23 10 26 6 3 10 24 10 45 0 21 5 42 10 45 6 3 10 -3
10 -14 0 -11 4 -23 10 -26 5 -3 24 -27 41 -52 26 -37 29 -47 18 -55 -10 -7 -8
-8 9 -5 18 4 22 1 22 -20 0 -24 -1 -25 -22 -10 -13 8 -22 23 -21 33 1 10 -5
27 -12 38 -13 18 -14 18 -12 -10 1 -21 -2 -29 -14 -28 -9 1 -16 -4 -16 -10 -1
-6 -4 -44 -7 -83 -3 -44 -1 -73 4 -73 6 0 10 7 10 16 0 9 5 12 12 8 7 -5 9 -2
6 7 -4 10 4 20 24 28 27 12 78 53 78 63 0 2 24 30 54 62 30 33 52 65 49 72 -3
8 8 21 26 31 17 10 31 20 31 23 0 3 -33 6 -73 7 -156 6 -255 15 -327 30 -77
16 -89 19 -152 47 -20 9 -42 15 -50 15 -7 -1 -5 -3 5 -6z"/>
<path d="M4525 2690 c-8 -13 3 -50 16 -50 13 0 11 14 -3 28 -9 9 -9 12 0 12
23 0 25 -48 3 -71 -14 -15 -18 -27 -12 -38 16 -29 59 -204 72 -290 50 -343
-109 -759 -401 -1051 -297 -297 -674 -515 -1129 -655 -670 -206 -1553 -184
-2275 56 -267 89 -533 226 -728 375 -31 24 -59 44 -62 44 -3 0 -6 -236 -6
-525 l0 -525 2353 0 c1936 1 2355 3 2370 14 14 11 17 29 17 98 0 78 -2 86 -22
96 l-23 11 23 0 c19 1 22 7 22 37 0 30 -3 35 -17 30 -17 -6 -17 -5 0 8 20 15
23 72 5 79 -10 4 -10 6 0 6 9 1 12 39 12 155 0 114 -3 156 -12 159 -10 4 -10
6 0 6 16 1 18 1601 2 1601 -5 0 -10 9 -10 20 0 11 5 20 10 20 14 0 12 44 -2
58 -10 10 -10 15 1 21 11 7 10 10 -4 12 -17 4 -18 5 -2 21 21 21 21 28 2 28
-19 0 -19 14 -1 33 12 12 12 16 -4 27 -22 16 -17 32 8 23 16 -6 16 -6 0 10 -9
9 -25 17 -35 17 -11 0 -28 6 -39 14 -16 12 -21 12 -34 1 -19 -16 -59 -23 -59
-10 0 6 9 9 20 8 10 -2 19 2 19 7 0 6 -7 10 -15 10 -22 0 -18 28 5 32 24 4 11
31 -17 33 -10 0 -24 4 -30 8 -6 4 -14 3 -18 -3z"/>
<path d="M1843 2603 c0 -7 6 -12 13 -9 8 3 10 -3 7 -17 -4 -16 -2 -18 5 -8 12
16 33 6 26 -13 -6 -16 26 -38 90 -59 65 -22 81 -21 94 6 10 22 11 22 11 -5 1
-22 5 -28 24 -26 12 0 27 0 32 -2 26 -6 65 1 62 12 -1 8 14 13 42 15 24 2 49
7 56 13 6 5 16 6 21 1 5 -5 17 -1 27 9 16 16 11 17 -120 24 -183 8 -208 11
-278 36 -105 38 -112 39 -112 23z"/>
</g>
</svg>
